<?xml version="1.0" standalone="no"?>
<!DOCTYPE svg PUBLIC "-//W3C//DTD SVG 1.1//EN" "http://www.w3.org/Graphics/SVG/1.1/DTD/svg11.dtd" >
<svg xmlns="http://www.w3.org/2000/svg">
<metadata>
This is a custom SVG webfont generated by Font Squirrel.
Copyright   :  C 2008 dot colon
Designer    : arro
</metadata>
<defs>
<font id="webfontnfSTEkO5" horiz-adv-x="632" >
<font-face units-per-em="2048" ascent="1489" descent="-559" />
<missing-glyph horiz-adv-x="495" />
<glyph unicode=" "  horiz-adv-x="495" />
<glyph unicode="&#x09;" horiz-adv-x="495" />
<glyph unicode="&#xa0;" horiz-adv-x="495" />
<glyph unicode="!" horiz-adv-x="403" d="M111 63q0 41 26.5 69t67.5 28q39 0 64.5 -25.5t25.5 -62.5q0 -41 -27.5 -69t-68.5 -28q-37 0 -62.5 24.5t-25.5 63.5zM111 1292q-2 35 17 48.5t70.5 13.5t71 -13.5t17.5 -48.5q-18 -426 -56 -884q-2 -8 -32.5 -8.5t-32.5 8.5q-37 458 -55 884z" />
<glyph unicode="&#x22;" horiz-adv-x="729" d="M90 1041.5q-12 21.5 0 33.5q76 47 101.5 78t25.5 66q0 55 -61 88q-43 23 -43 71q0 33 19.5 55.5t55.5 22.5q61 0 99.5 -47t38.5 -121q0 -160 -207 -264q-17 -4 -29 17.5zM395.5 1041.5q-12.5 21.5 -0.5 33.5q76 47 101.5 78t25.5 66q0 55 -61 88q-43 23 -43 71 q0 33 19.5 55.5t56.5 22.5q61 0 99 -47t38 -121q0 -160 -207 -264q-16 -4 -28.5 17.5z" />
<glyph unicode="#" horiz-adv-x="899" d="M63 227l17 82q4 10 12 10h176q8 0 13 11l32 159q0 10 -8 11h-164q-12 0 -8 10l17 82q4 10 12 10h164q12 0 12 10l61 301q8 2 31 -3t27 -9l-60 -289q0 -10 9 -10h163q8 0 13 10l61 301q8 2 30.5 -3t26.5 -9l-59 -289q0 -10 8 -10h176q12 0 9 -10l-17 -82q-2 -10 -12 -10 h-176q-8 0 -13 -11l-32 -159q-4 -10 8 -11h164q10 0 8 -10l-16 -82q-4 -10 -13 -10h-164q-8 0 -12 -10l-63 -301q-8 -2 -31 3t-27 9l62 289q4 10 -8 10h-164q-10 0 -13 -10l-63 -301q-8 -2 -30.5 3t-26.5 9l61 289q0 10 -8 10h-176q-9 0 -9 10zM340 330q-4 -10 8 -11h164 q10 0 12 11l33 159q0 10 -8 11h-164q-10 0 -12 -11z" />
<glyph unicode="$" horiz-adv-x="802" d="M111 55q0 37 10 74q2 6 12 6t14 -4q63 -94 215 -94q10 0 11 10v305q-4 10 -8 13q-209 80 -209 243q0 86 64.5 148.5t146.5 79.5q6 0 6 6v155q16 4 30 4q10 0 31 -4v-147q0 -6 8 -6q127 0 201 -58q8 -6 8 -22q0 -39 -10 -74q-2 -6 -13.5 -7t-13.5 3q-45 96 -174 96 q-6 -4 -6 -6v-272q0 -12 8 -15q127 -49 184.5 -108t57.5 -145q0 -100 -71.5 -166t-170.5 -86q-8 -2 -8 -11v-151q-20 -4 -31 -4q-14 0 -30 4v145q0 8 -11 8q-170 0 -243 58q-8 6 -8 22zM295 651q0 -55 20.5 -90t49.5 -43q8 0 8 4v238q0 4 -6 4q-72 -35 -72 -113zM434 61 q0 -10 10 -8q100 43 101 152q0 86 -101 131q-10 4 -10 -6v-269z" />
<glyph unicode="%" horiz-adv-x="1273" d="M80 630.5q0 112.5 66.5 184.5t167 72t167 -72t66.5 -184.5t-66.5 -184t-167 -71.5t-167 71.5t-66.5 184zM215 631q0 -207 98.5 -207t98.5 207t-98.5 207t-98.5 -207zM285 -88l655 1028q8 2 28.5 -11.5t20.5 -21.5l-655 -1028q-10 -2 -29.5 11.5t-19.5 21.5zM727 188.5 q0 112.5 66.5 184t167 71.5t167 -71.5t66.5 -184t-66.5 -184.5t-167 -72t-167 72t-66.5 184.5zM862 188.5q0 -206.5 98.5 -206.5t98.5 206.5t-98.5 206.5t-98.5 -206.5z" />
<glyph unicode="&#x26;" horiz-adv-x="1447" d="M111 373q0 125 95 225t234 141q2 0 2 3t-2 6q-111 16 -185.5 96t-74.5 184q0 145 131 235.5t320 90.5q66 0 136.5 -19.5t106.5 -50.5q6 -6 11 -20q0 -49 -27 -111q-6 -8 -20.5 -8t-16.5 8q-70 129 -213 129q-123 0 -195.5 -63.5t-72.5 -157.5q0 -113 64.5 -185.5 t173.5 -93.5q8 -4 5 -23.5t-12 -23.5q-115 -16 -201.5 -92t-86.5 -209q0 -168 121.5 -256t328.5 -88q205 0 330 96.5t125 243.5q0 127 -80 205t-188 78q-76 0 -150 -35q-10 -4 -22.5 7t-8.5 22q35 59 82 81.5t135 32.5q150 16 281 43q72 14 107.5 32.5t74.5 57.5 q10 6 24.5 -2t12.5 -20q-33 -90 -78 -122t-151 -50l-174 -29q-2 0 -2 -2t2 -4q104 -43 161.5 -126t57.5 -187q0 -190 -161 -313.5t-409 -123.5q-268 0 -429.5 101.5t-161.5 296.5z" />
<glyph unicode="'" horiz-adv-x="423" d="M90 1041.5q-12 21.5 0 33.5q76 47 101.5 78t25.5 66q0 55 -61 88q-43 23 -43 71q0 33 19.5 55.5t55.5 22.5q61 0 99.5 -47t38.5 -121q0 -160 -207 -264q-17 -4 -29 17.5z" />
<glyph unicode="(" horiz-adv-x="675" d="M139 629q0 504 426 823q8 0 20.5 -12.5t12.5 -20.5q-147 -147 -225 -357t-78 -433t78 -433t225 -358q0 -8 -12.5 -20.5t-20.5 -12.5q-426 320 -426 824z" />
<glyph unicode=")" horiz-adv-x="675" d="M78 -162q147 147 225 357.5t78 433.5t-78 433t-225 357q0 8 12 20.5t21 12.5q426 -319 426 -823t-426 -824q-8 0 -20.5 12.5t-12.5 20.5z" />
<glyph unicode="*" horiz-adv-x="663" d="M61 1010q135 76 207 123q4 4 4 6t-4 6q-72 47 -207 123q-4 10 5.5 24.5t17.5 16.5q121 -70 211 -115q6 0 6 4q6 98 6 240q8 6 24.5 6t24.5 -6q0 -141 6 -240q0 -4 7 -4l211 115q8 -2 17 -16.5t5 -24.5q-135 -76 -207 -123q-4 -4 -4 -6t4 -6q72 -47 207 -123 q4 -10 -5 -24.5t-17 -16.5l-211 114q-6 0 -7 -4q-6 -98 -6 -239q-8 -6 -24.5 -6t-24.5 6q0 141 -6 239q0 4 -6 4q-90 -45 -211 -114q-8 2 -17.5 16.5t-5.5 24.5z" />
<glyph unicode="+" horiz-adv-x="1081" d="M109 409.5q0 14.5 4 26.5h389q8 0 8 8v390q20 4 30.5 4t30.5 -4v-390q0 -8 9 -8h389q4 -12 4 -26.5t-4 -26.5h-389q-8 0 -9 -8v-389q-20 -4 -30.5 -4t-30.5 4v389q0 8 -8 8h-389q-4 12 -4 26.5z" />
<glyph unicode="," horiz-adv-x="401" d="M74 -223q76 47 101.5 77.5t25.5 65.5q0 55 -62 88q-43 23 -43 72q0 33 19.5 55.5t56.5 22.5q61 0 99 -47.5t38 -120.5q0 -160 -207 -264q-16 -4 -28 17.5t0 33.5z" />
<glyph unicode="-" d="M113 379q41 41 64.5 52t68.5 11q106 0 203 9q31 2 55 8q6 2 12 -6.5t4 -14.5q-39 -39 -66.5 -50t-70.5 -11q-123 0 -203 -8q-33 -2 -51 -11q-6 -2 -12 6.5t-4 14.5z" />
<glyph unicode="." horiz-adv-x="409" d="M113 63q0 41 26.5 69t67.5 28q39 0 64.5 -25.5t25.5 -62.5q0 -41 -27.5 -69t-68.5 -28q-37 0 -62.5 24.5t-25.5 63.5z" />
<glyph unicode="/" horiz-adv-x="733" d="M8 -115l658 1467q8 0 31.5 -10.5t27.5 -16.5l-657 -1466q-8 0 -32 10t-28 16z" />
<glyph unicode="0" horiz-adv-x="1040" d="M84 403.5q0 182.5 130 312.5t312.5 130t306 -124t123.5 -306q0 -180 -131 -311.5t-313 -131.5q-180 0 -304 124t-124 306.5zM152 415.5q0 -151.5 107.5 -231.5t267 -80t261 74t101.5 225.5t-107.5 231.5t-267.5 80t-261 -74t-101 -225.5z" />
<glyph unicode="1" horiz-adv-x="659" d="M86 743.5q0 10.5 4 12.5q55 8 113.5 22.5t123.5 33.5l93 28q4 2 11 -1t7 -8l-8 -354q0 -338 8 -469q0 -8 -8 -8h-135q-8 0 -8 8q8 131 8 402v297q0 10 -10 14q-76 10 -195 10q-4 2 -4 12.5z" />
<glyph unicode="2" horiz-adv-x="761" d="M31 12q88 68 182 172q133 143 186.5 233.5t53.5 188.5q0 176 -152 176q-84 0 -125 -88q-4 -4 -12 -4t-12 4q-12 37 -13 78q0 12 11 19q84 55 219 55q102 0 170.5 -55.5t68.5 -143.5q0 -61 -40 -134t-152 -198q-100 -111 -172 -200q-2 -2 -1 -5.5t3 -3.5q72 -4 211 -4 q115 0 225 19q4 2 17.5 -2t13.5 -6q0 -43 -19 -107q-6 -10 -16 -10q-109 4 -328 4q-246 0 -311 -4q-4 0 -7 6t-1 10z" />
<glyph unicode="3" horiz-adv-x="743" d="M29 -371q0 18 16 19q55 8 129 39.5t115 60.5q182 125 182 322q0 233 -192 233q-45 0 -95 -37q-10 -4 -23.5 14.5t-4.5 26.5q147 98 198.5 163t51.5 151q0 162 -152 161q-86 0 -129 -84q-2 -2 -12.5 -2t-12.5 2q-8 33 -8 78q4 10 10 15q84 55 220 55q102 0 170.5 -55.5 t68.5 -143.5q0 -82 -57.5 -148.5t-171.5 -138.5q-2 -2 -1 -5t3 -3q131 0 212 -59.5t81 -165.5q0 -156 -151.5 -305.5t-375.5 -251.5q-10 -4 -18 0q-41 24 -53 59z" />
<glyph unicode="4" horiz-adv-x="944" d="M10 139q115 106 302.5 311t324.5 369q8 8 39 8q6 0 6 -6q-12 -315 -12 -600q0 -8 8 -8q156 0 229 8q18 0 19 -8q0 -45 -13 -74q-4 -6 -12 -6q-143 0 -221 -6q-10 -2 -10 -10q0 -373 8 -504q0 -8 -8 -8h-138q-8 0 -8 8q10 164 11 506q0 8 -9 8q-342 0 -508 -4q-12 0 -8 16 zM211 225q-4 -8 4 -8q143 -8 311 0q8 2 9 8q0 14 3 172t5 201q0 2 -2 4t-4 0q-209 -232 -326 -377z" />
<glyph unicode="5" horiz-adv-x="706" d="M-43 -371q0 18 16 19q55 8 129 39.5t115 60.5q182 125 182 322q0 117 -125 225q-96 82 -121.5 119t-11.5 90q39 147 54 274q2 33 184 41q109 4 227 27q12 0 15 -6q0 -35 -17 -92q-6 -10 -18 -11q-201 -8 -322 -26q-10 0 -16 -13q-6 -10 -21 -90q-8 -47 17.5 -85 t117.5 -111q111 -90 152 -151.5t41 -133.5q0 -156 -151.5 -305.5t-374.5 -251.5q-8 -4 -19 0q-41 24 -53 59z" />
<glyph unicode="6" horiz-adv-x="856" d="M98 330q0 244 176.5 477t456.5 364q10 0 19.5 -9t10.5 -18t-5 -16q-233 -117 -371.5 -312t-138.5 -431q0 -344 221 -344q74 0 118 57.5t44 141.5q0 104 -48.5 165.5t-138.5 61.5q-45 0 -108 -35q-12 -2 -19.5 14.5t0.5 24.5q131 76 209 76q111 0 179.5 -63.5t68.5 -172.5 q0 -147 -101.5 -241.5t-244.5 -94.5q-152 0 -240 99.5t-88 255.5z" />
<glyph unicode="7" horiz-adv-x="833" d="M-57 -395q-8 12 2 26q23 23 44 48.5t51 67.5l50 71l64 95l63 99l78 124l84 132q111 176 254 437q2 2 1 5t-3 3q-72 4 -279 4q-127 0 -237 -19q-4 -2 -17.5 2.5t-13.5 6.5q0 43 18 106q4 10 17 10q113 -4 334 -4q287 0 352 4q2 0 6 -6t2 -10q-119 -152 -379 -578 l-377 -628q-6 -6 -24 -11q-53 1 -90 15z" />
<glyph unicode="8" horiz-adv-x="819" d="M84 143q0 96 53 169t166 163q6 6 4 8q-96 74 -144 141.5t-48 155.5q0 117 89 195t210 78q125 0 204.5 -71t79.5 -179q0 -145 -188 -297q-4 -4 0 -8q131 -98 178 -169t47 -163q0 -129 -94 -221t-238 -92q-141 0 -230 75.5t-89 214.5zM209 160q0 -113 56.5 -177.5 t144.5 -64.5q80 0 135 59.5t55 149.5q0 84 -42 141.5t-183 169.5q-4 4 -8 0q-84 -59 -121 -121.5t-37 -156.5zM242 821q0 -80 49 -138t160 -142q4 -4 8 0q68 59 92 112.5t24 126.5q0 94 -46 151.5t-128 57.5q-70 0 -114.5 -47t-44.5 -121z" />
<glyph unicode="9" horiz-adv-x="856" d="M84 508q0 147 101.5 241.5t244.5 94.5q152 0 240 -99.5t88 -255.5q0 -244 -176 -477t-457 -364q-10 0 -19.5 9t-10.5 18.5t5 15.5q233 117 371.5 312.5t138.5 430.5q0 344 -221 344q-74 0 -118 -57t-44 -141q0 -104 48.5 -166t138.5 -62q45 0 108 35q12 2 19.5 -14.5 t-0.5 -24.5q-125 -76 -209 -76q-111 0 -179.5 63.5t-68.5 172.5z" />
<glyph unicode=":" horiz-adv-x="409" d="M113 63q0 41 26.5 69t67.5 28q39 0 64.5 -25.5t25.5 -62.5q0 -41 -27.5 -69t-68.5 -28q-37 0 -62.5 24.5t-25.5 63.5zM113 748q0 41 26.5 68.5t67.5 27.5q39 0 64.5 -25.5t25.5 -62.5q0 -41 -27.5 -69t-68.5 -28q-37 0 -62.5 25t-25.5 64z" />
<glyph unicode=";" horiz-adv-x="401" d="M74 -223q76 47 101.5 77.5t25.5 65.5q0 55 -62 88q-43 23 -43 72q0 33 19.5 55.5t56.5 22.5q61 0 99 -47.5t38 -120.5q0 -160 -207 -264q-16 -4 -28 17.5t0 33.5zM104 748q0 41 27 68.5t68 27.5q39 0 64.5 -25.5t25.5 -62.5q0 -41 -28 -69t-68 -28q-37 0 -63 25t-26 64z " />
<glyph unicode="&#x3c;" horiz-adv-x="1087" d="M92 428q0 27 4 35l848 422q8 -4 16.5 -21.5t8.5 -27.5l-801 -398q-4 -4 -4 -8t4 -6l803 -395q0 -8 -11.5 -30t-17.5 -26l-846 422q-4 6 -4 33z" />
<glyph unicode="=" horiz-adv-x="1118" d="M127 282.5q0 14.5 4 26.5h856q4 -12 4 -26.5t-4 -26.5h-856q-4 12 -4 26.5zM127 577.5q0 14.5 4 26.5h856q4 -12 4 -26.5t-4 -26.5h-856q-4 12 -4 26.5z" />
<glyph unicode="&#x3e;" horiz-adv-x="1087" d="M117 829q0 8 11 30t17 26l846 -422q4 -6 4 -33t-4 -35l-848 -422q-8 4 -16 21.5t-8 28.5l801 397q4 4 0 14z" />
<glyph unicode="?" horiz-adv-x="686" d="M127 1305q0 49 57 49q158 0 270.5 -109.5t112.5 -277.5q0 -102 -42 -159.5t-150 -117.5q-121 -68 -121 -149q0 -76 14 -121q0 -10 -17.5 -15.5t-25.5 3.5q-66 119 -65 208q0 55 35.5 94.5t130.5 88.5q88 47 130 96t42 113q0 76 -64.5 127t-161.5 55q-84 4 -114.5 30 t-30.5 85zM166 63q0 41 26.5 69t67.5 28q39 0 64.5 -25.5t25.5 -62.5q0 -41 -27.5 -69t-68.5 -28q-37 0 -62.5 24.5t-25.5 63.5z" />
<glyph unicode="@" horiz-adv-x="1523" d="M115 297q0 233 118.5 416.5t303 277.5t393.5 94q205 0 356.5 -132t151.5 -318q0 -217 -124 -339t-306 -122q-80 0 -117 32t-14 91q0 2 -2.5 4t-4.5 0q-137 -168 -280 -168q-49 0 -83 35t-34 90q0 178 136 308t286 130q63 0 94 -45q6 -4 10 0l25 62q8 16 20 18q61 8 105 8 q14 -4 10 -16q-41 -94 -123 -320q-35 -106 -25.5 -138t58.5 -32q135 0 221 108t86 273q0 180 -126 299t-353 119q-158 0 -311.5 -88t-256 -253t-102.5 -361q0 -260 146.5 -392.5t388.5 -132.5q190 0 381 119q12 4 22.5 -11t1.5 -26q-221 -133 -473 -133q-248 0 -413.5 146.5 t-165.5 396.5zM608 299q0 -29 21.5 -50.5t50.5 -21.5q72 0 145.5 79t118.5 202q49 137 -59 137q-106 0 -191.5 -113.5t-85.5 -232.5z" />
<glyph unicode="A" horiz-adv-x="1193" d="M248 577l311 771q6 10 21.5 10t21.5 -10q356 -924 574 -1336q4 -16 -15 -16q-135 0 -178 4q-16 2 -20 12q-37 125 -195 518q-6 10 -16 15q-127 4 -207 4q-92 0 -207 -4q-18 -4 -25 -21q-129 -317 -188 -520q0 -4 -6 -4q-53 -4 -115 -4q-6 0 -9 6q-2 4 -2 7q0 75 51 186 t120 228.5t84 153.5zM362 647q-4 -16 13 -20q63 -4 164 -4q106 0 174 4q12 3 12 12q0 4 -2 8l-174 426q-4 5 -7.5 5t-6.5 -5z" />
<glyph unicode="B" horiz-adv-x="1011" d="M133 8q8 211 8 656q0 287 -8 655q0 20 324 20q414 0 413 -309q0 -119 -67.5 -196.5t-167.5 -116.5q-4 -4 0 -8q285 -63 285 -310q0 -190 -136.5 -300.5t-326.5 -110.5q-324 0 -324 20zM285 641q0 -348 8 -496q4 -55 32.5 -71.5t127.5 -16.5q125 0 210 88t85 224 q0 283 -269 282q-194 0 -194 -10zM285 731q0 -10 161 -10q123 0 187.5 74.5t64.5 205.5q0 268 -245 269q-168 0 -168 -10v-529z" />
<glyph unicode="C" horiz-adv-x="1325" d="M72 647q0 324 197.5 515.5t525.5 191.5q260 0 415 -109q12 -12 13 -33q-12 -70 -29 -100q-2 -6 -14.5 -6t-20.5 6q-113 162 -414 162q-219 0 -360 -147.5t-141 -401.5q0 -319 139 -499.5t375 -180.5q203 0 338 141q74 78 90 158q6 6 29.5 3t25.5 -11q0 -111 -24 -158 q-66 -94 -203 -149.5t-299 -55.5q-281 0 -462 189.5t-181 484.5z" />
<glyph unicode="D" horiz-adv-x="1396" d="M133 8q8 211 8 656q0 287 -8 655q0 20 453 20q739 0 739 -585q0 -352 -225.5 -559t-560.5 -207q-406 0 -406 20zM285 664q0 -365 8 -519q2 -31 19.5 -47t83 -28.5t190.5 -12.5q244 0 405.5 167t161.5 485q0 272 -156.5 416.5t-414.5 144.5q-297 0 -297 -8v-598z" />
<glyph unicode="E" horiz-adv-x="841" d="M131 4q8 369 8 659.5t-8 659.5q0 8 8 8q109 -4 318 -4q199 0 272 4q8 0 10 -6q6 -25 11 -68q-2 -10 -23 -10q-133 10 -270 10q-170 0 -170 -8q-4 -205 -4 -528q0 -8 178 -8q152 0 211 8q8 0 8 -8q-2 -33 -14 -68q-6 -10 -23 -10q-90 8 -182 8q-178 0 -178 -8 q0 -350 4 -451q2 -51 15 -74.5t50 -31.5q41 -8 119 -8q193 0 299 10q18 0 23 -14q-4 -31 -13 -64q-2 -6 -10 -6q-66 4 -293 4q-174 0 -338 -4q-8 0 -8 8z" />
<glyph unicode="F" horiz-adv-x="763" d="M131 8q8 369 8 656q0 291 -8 659q0 8 8 8q109 -4 318 -4q199 0 272 4q8 0 10 -6q6 -25 11 -68q-2 -10 -23 -10q-133 10 -270 10q-170 0 -170 -8q-4 -205 -4 -528q0 -8 178 -8q152 0 211 8q8 0 8 -8q-2 -33 -14 -68q-6 -10 -23 -10q-90 8 -182 8q-178 0 -178 -8 q0 -258 8 -627q0 -8 -8 -8h-144q-8 0 -8 8z" />
<glyph unicode="G" horiz-adv-x="1349" d="M72 645q0 324 197.5 515.5t525.5 191.5q260 0 415 -109q12 -12 13 -33q-12 -70 -29 -100q-2 -6 -14.5 -6t-20.5 6q-113 162 -414 162q-219 0 -360 -147.5t-141 -401.5q0 -317 148.5 -498.5t385.5 -181.5q190 0 303 86q10 6 11 33q0 299 -9 440q0 8 9 8h143q8 0 8 -8 q-8 -147 -8 -461q0 -14 -8 -22q-121 -80 -233.5 -114t-278.5 -34q-281 0 -462 189.5t-181 484.5z" />
<glyph unicode="H" horiz-adv-x="1359" d="M131 8q8 369 8 655.5t-8 655.5q0 8 8 8h144q8 0 8 -8q-8 -340 -8 -596q0 -10 397 -10t397 10q0 256 -8 596q0 8 8 8h144q8 0 8 -8q-8 -369 -8 -655.5t8 -655.5q0 -8 -8 -8h-144q-8 0 -8 8q8 360 8 627q0 8 -397 8t-397 -8q0 -266 8 -627q0 -8 -8 -8h-144q-8 0 -8 8z" />
<glyph unicode="I" horiz-adv-x="421" d="M131 8q8 369 8 655.5t-8 655.5q0 8 8 8h144q8 0 8 -8q-8 -369 -8 -655.5t8 -655.5q0 -8 -8 -8h-144q-8 0 -8 8z" />
<glyph unicode="J" horiz-adv-x="421" d="M-72 -434q98 80 144.5 165t65 232.5t18.5 433.5q0 461 -11 922q0 8 9 8h143q8 0 8 -8q-8 -369 -8 -655q0 -297 6 -471q1 -22 1 -44q0 -202 -71 -319q-104 -172 -284 -287h-2q-4 0 -13 8q-7 7 -7 12q0 2 1 3z" />
<glyph unicode="K" horiz-adv-x="1116" d="M131 8q8 369 8 655.5t-8 655.5q0 8 8 8h144q8 0 8 -8q-8 -356 -8 -619q0 -8 10 -8q35 0 139 105q254 252 481 520q8 10 23 10q61 4 133 4q4 0 8 -6t2 -10q-92 -66 -292.5 -262.5t-340.5 -356.5q-4 -6 0 -12q315 -365 656 -672q4 -16 -10 -16q-31 0 -96.5 2t-96.5 2 q-63 0 -90 37q-121 162 -369 436q-84 92 -106.5 111.5t-42.5 19.5q-8 0 -8 -6q0 -221 8 -590q0 -8 -8 -8h-144q-8 0 -8 8z" />
<glyph unicode="L" horiz-adv-x="800" d="M131 4q8 369 8 660q0 287 -8 655q0 8 8 8h144q8 0 8 -8q-8 -369 -8 -655q0 -379 4 -480q2 -51 15 -74.5t50 -31.5q41 -8 119 -8q193 0 299 10q18 0 23 -14q-4 -31 -13 -64q-2 -6 -10 -6q-66 4 -293 4q-174 0 -338 -4q-8 0 -8 8z" />
<glyph unicode="M" horiz-adv-x="1576" d="M88 8q12 207 25.5 627t13.5 596q0 16 -8 33q-20 39 -31 55q-3 1 -3 3q0 4 9 9q86 0 160 -4q10 0 16 -8q211 -504 488 -1038q4 -4 8 0q262 512 489 1034q4 10 17 12q37 4 153 4q12 0 13 -12q-16 -47 -17 -88q0 -707 37 -1223q0 -8 -8 -8h-145q-8 0 -9 8q0 15 1 37 q0 122 -10 464q-11 404 -21 595q-4 6 -9 2q-203 -391 -514 -1073q-23 -20 -43 0q-223 512 -487 1026q-8 8 -8 -2q-27 -728 -27 -1011v-38q0 -8 -8 -8h-74q-8 0 -8 8z" />
<glyph unicode="N" horiz-adv-x="1312" d="M70 1315q-1 3 -1 6t1 5q2 5 6 5q74 0 172 -4q10 0 18 -8q348 -457 830 -1020q4 -4 8 2q-4 139 -4 404q0 270 -8 614q0 8 8 8h82q8 0 8 -8q-8 -303 -8 -655q0 -414 6 -689q0 -6 -11 -8q-4 -1 -8 0q-7 0 -12 2l-503 630l-435 525q-4 4 -8 -2q4 -139 4 -499q0 -270 8 -615 q0 -8 -8 -8h-82q-8 0 -8 8q8 303 8 656v528q0 31 -14 53q-8 15 -49 70z" />
<glyph unicode="O" horiz-adv-x="1523" d="M72 645q0 313 195.5 510t496.5 197q303 0 495.5 -190.5t192.5 -479.5q0 -322 -212 -514.5t-511 -192.5q-289 0 -473 190.5t-184 479.5zM244 709q0 -297 144 -480.5t386 -183.5q211 0 358.5 149.5t147.5 423.5q0 297 -162 480.5t-399 183.5q-199 0 -337 -149.5 t-138 -423.5z" />
<glyph unicode="P" horiz-adv-x="876" d="M131 8q8 369 8 655.5t-8 655.5q0 20 324 20q190 0 291.5 -80.5t101.5 -234.5q0 -178 -130 -277.5t-341 -111.5q-12 2 -15.5 22.5t9.5 28.5q139 12 226 91t87 218q0 274 -254 275q-147 0 -147 -8v-598q0 -287 8 -656q0 -8 -8 -8h-144q-8 0 -8 8z" />
<glyph unicode="Q" horiz-adv-x="1536" d="M72 645q0 313 195.5 510t496.5 197q303 0 495.5 -190.5t192.5 -479.5q0 -291 -192.5 -486.5t-454.5 -222.5q-12 -4 -12 -10q0 -43 45 -61q322 -133 561 -201q117 -33 217 -43q6 -2 6 -10q-53 -98 -137 -176q-4 -4 -9 -4q-3 0 -8 2q-686 328 -835 389q-6 6 2 12 q53 35 94 92q4 10 -4 10q-283 0 -468 191.5t-185 480.5zM244 709q0 -297 144 -480.5t386 -183.5q211 0 358.5 149.5t147.5 423.5q0 297 -162 480.5t-399 183.5q-199 0 -337 -149.5t-138 -423.5z" />
<glyph unicode="R" horiz-adv-x="1034" d="M131 8q8 369 8 655.5t-8 655.5q0 20 324 20q195 0 299 -76.5t104 -228.5q0 -139 -85 -232t-208 -130q-8 -4 0 -13q86 -129 241 -335.5t249 -319.5q2 -2 2 -3q0 -3 -6 -5q-53 4 -136 4q-47 0 -73.5 13.5t-50.5 52.5q-68 109 -187 277.5t-196 266.5q-23 25 -52 25 q-74 0 -73 -8q0 -311 8 -619q0 -8 -8 -8h-144q-8 0 -8 8zM283 713q0 -8 108 -8q137 0 220 74.5t83 215.5q0 133 -68.5 204t-195.5 71q-147 0 -147 -8v-549z" />
<glyph unicode="S" horiz-adv-x="972" d="M90 197q2 4 14.5 6t18.5 -4q49 -70 132 -112t169 -42q135 0 212 75t77 195q0 115 -61.5 179.5t-209.5 126.5q-139 59 -206.5 138t-67.5 208q0 170 112.5 277.5t290.5 107.5q150 0 271 -80q12 -12 12 -33q-10 -61 -31 -98q-2 -6 -17 -5t-18 9q-68 137 -235 137 q-104 0 -169 -59.5t-65 -171.5q0 -119 53.5 -177.5t180.5 -109.5q176 -74 247.5 -159t71.5 -212q0 -186 -129 -302t-327 -116q-90 0 -182.5 27t-149.5 70q-13 13 -13 29q0 45 19 96z" />
<glyph unicode="T" horiz-adv-x="1173" d="M16 1249q6 47 17 80q4 6 10 6q205 -8 549 -8q426 0 555 8q8 0 10 -6q-2 -41 -20 -84q-2 -6 -17.5 -9t-23.5 1q-115 20 -269 20q-164 0 -163 -12v-581q0 -287 8 -656q0 -8 -8 -8h-144q-8 0 -8 8q8 369 8 656v581q0 12 -164 12q-195 0 -307 -20q-8 -2 -20.5 2t-12.5 10z " />
<glyph unicode="U" horiz-adv-x="1157" d="M119 1319q0 8 8 8h143q8 0 9 -8q-8 -369 -9 -821q0 -236 87 -344.5t266 -108.5q147 0 242.5 100.5t95.5 284.5q0 545 -9 889q0 8 9 8h81q8 0 9 -8q-8 -303 -9 -852q0 -238 -124.5 -366t-350.5 -128q-205 0 -322.5 121t-117.5 342q0 514 -8 883z" />
<glyph unicode="V" horiz-adv-x="1193" d="M18 1315q-4 16 15 16q135 0 178 -4q16 -2 20 -12q61 -205 414 -1061q6 -10 14 0q352 856 410 1069q0 4 6 4q49 4 115 4q4 0 8 -6q3 -4 3 -7q0 -77 -52.5 -191.5t-124 -235.5t-87.5 -159l-302 -752q-6 -10 -21.5 -10.5t-21.5 10.5q-357 923 -574 1335z" />
<glyph unicode="W" horiz-adv-x="1832" d="M24 1320q0 8 11 11q125 0 174 -4q12 0 18 -12q35 -125 168 -531.5t170 -494.5q6 -10 13 0q219 532 370 1038q6 10 21 11h2q13 0 20 -11q82 -268 198 -589.5t169 -444.5q6 -10 12 0q45 115 174 511t160 511q6 8 18 12q45 4 97 4q12 0 12 -16q-135 -266 -473 -1335 q-6 -10 -19.5 -10.5t-23.5 10.5l-373 1005q-2 2 -6 2t-6 -2l-381 -1005q-8 -12 -21.5 -12.5t-21.5 12.5q-90 275 -217 594l-196 499t-69 247z" />
<glyph unicode="X" horiz-adv-x="1046" d="M442 664q4 8 0 14q-281 467 -424 637q-4 16 9 16q92 0 198 -4q10 0 17 -8q96 -207 290 -504q4 -6 11 0q203 299 317 504q8 8 17 8q27 2 104 2q14 0 8 -10q-45 -51 -195.5 -272.5t-203.5 -305.5q-4 -10 0 -16q94 -158 245.5 -389.5t233.5 -327.5q4 -12 -10 -12 q-63 0 -182 4q-18 0 -29 10q-123 231 -348 580q-4 4 -11 0q-158 -229 -370 -580q-6 -10 -19 -10q-66 -4 -98 -4q-4 0 -7 6q-2 4 -2 7q0 37 75 142.5l194 260.5t180 252z" />
<glyph unicode="Y" horiz-adv-x="1007" d="M25 1315q-1 4 -1 7q0 9 9 9q92 0 198 -4q10 0 17 -8q131 -250 313 -514q4 -6 10 0q197 289 312 514q8 8 16 8q27 2 105 2q12 0 8 -10q-147 -193 -404 -610q-12 -25 -12 -45q0 -287 8 -656q0 -8 -8 -8h-143q-8 0 -9 8q8 369 9 660q0 20 -11 37q-241 399 -417 610z" />
<glyph unicode="Z" horiz-adv-x="1198" d="M495 674q253 387 357 565q0 14 -8 14q-70 4 -274.5 4t-393.5 -24q-4 -2 -12 0t-8 4q0 43 14 82q2 12 14 12q117 -4 420 -4q266 0 490 4q4 0 7 -6t1 -10q-98 -139 -371 -554l-430 -673q-4 -8 4 -8q172 -8 397 -8q313 0 428 28q4 2 14.5 -3t10.5 -7q0 -33 -12 -82 q-2 -12 -13 -12q-104 4 -372 4q-438 0 -703 -4q-4 0 -7 6q-2 4 -2 7q0 71 87.5 200.5t212.5 279t149 185.5z" />
<glyph unicode="[" horiz-adv-x="659" d="M201 -150v1557q0 14 12 14q123 -4 344 -4q4 -2 4 -19.5t-4 -19.5q-59 0 -149 -14q-72 -12 -72 -84v-1303q0 -72 72 -83q90 -14 149 -15q4 -2 4 -19.5t-4 -19.5q-98 0 -344 -4q-12 0 -12 14z" />
<glyph unicode="\" horiz-adv-x="733" d="M8 1325q4 6 27.5 16.5t32.5 10.5l657 -1467q-4 -6 -27.5 -16t-31.5 -10z" />
<glyph unicode="]" horiz-adv-x="659" d="M98 -140.5q0 17.5 4 19.5q59 0 150 15q72 14 72 83v1303q0 70 -72 84q-90 14 -150 14q-4 2 -4 19.5t4 19.5q219 0 344 4q8 0 13 -14v-1557q-4 -14 -13 -14q-250 4 -344 4q-4 2 -4 19.5z" />
<glyph unicode="^" horiz-adv-x="1191" d="M139 463l430 840q6 2 32 2t34 -2l418 -838q-2 -4 -24.5 -15.5t-29.5 -13.5l-395 797q-4 4 -8 0l-406 -797q-6 0 -27.5 11.5t-23.5 15.5z" />
<glyph unicode="_" horiz-adv-x="917" d="M-2 -143.5q0 14.5 4 26.5h913q4 -12 4.5 -26.5t-4.5 -26.5h-913q-4 12 -4 26.5z" />
<glyph unicode="`" horiz-adv-x="808" d="M195 1389q0 31 19 49t48 18q66 0 129 -102q84 -137 129 -191q-2 -8 -13 -18t-20 -12q-96 76 -188 129q-104 59 -104 127z" />
<glyph unicode="a" horiz-adv-x="866" d="M76 231q0 66 31.5 104t115.5 75q119 51 297 100q16 6 17 94q0 92 -33 135t-115 43q-61 0 -113.5 -31.5t-72.5 -86.5q-4 -6 -14.5 -7.5t-14.5 5.5q-14 33 -14 83q0 14 10 21q94 78 248 78q152 0 206 -62q50 -57 50 -171v-17q-6 -168 -6 -328q0 -121 15 -165t46 -44 q39 0 82 35q8 4 17 -5q6 -6 7 -12q0 -3 -1 -5q-82 -96 -185 -97q-90 0 -110 97q0 2 -3.5 3t-5.5 -1q-96 -96 -235 -97q-90 0 -154.5 76t-64.5 180zM231 256q0 -86 37 -142.5t99 -56.5q47 0 90 22.5t61 53.5q17 28 17 94v15q-2 55 -3 190q-6 6 -8 6q-123 -10 -219 -63 q-45 -25 -59.5 -47.5t-14.5 -71.5z" />
<glyph unicode="b" horiz-adv-x="1026" d="M108 1399q0 5 3 11q4 9 12 11q68 8 149 9q8 0 9 -9q-8 -258 -9 -665q0 -2 3.5 -4t7.5 0q123 92 254 92q182 0 290.5 -111.5t108.5 -288.5q0 -219 -138.5 -344t-342.5 -125q-66 0 -119 15q-82 23 -125 22q-18 0 -68 -18q-20 -4 -20 10q14 279 14 701q0 240 -8 507 q-1 41 -11 103t-10 84zM272 614q0 -170 4 -395q4 -182 209 -182q135 0 215 94t80 252q0 180 -81 279.5t-224 99.5q-53 0 -103 -21.5t-77 -56.5q-23 -31 -23 -70z" />
<glyph unicode="c" horiz-adv-x="845" d="M90 397q0 199 123 323t311 124q145 0 228 -58q8 -6 8 -22q0 -39 -10 -74q-2 -6 -13.5 -7t-13.5 3q-45 96 -195 96q-129 0 -205.5 -94t-76.5 -262q0 -170 85 -269.5t222 -99.5q121 0 229 88q10 6 22 -6q7 -7 6 -13q0 -5 -3 -9q-49 -57 -135 -100.5t-158 -43.5 q-190 0 -307 115.5t-117 308.5z" />
<glyph unicode="d" horiz-adv-x="1024" d="M90 375q0 219 138.5 344t342.5 125q84 0 174 -33q8 -4 9 4q0 129 -9 397q-4 115 -20 183q-2 6 2 15t12 11q68 8 150 9q8 0 8 -9q-8 -289 -8 -716q0 -565 8 -697q0 -8 -8 -8h-131q-8 0 -8 8q4 14 4 70q0 6 -9 2q-119 -104 -256 -105q-182 0 -290.5 112t-108.5 288z M246 436q0 -180 81 -279.5t224 -99.5q109 0 180 80q23 27 23 70q0 168 -4 393q-6 182 -209 182q-135 0 -215 -94t-80 -252z" />
<glyph unicode="e" horiz-adv-x="884" d="M90 397q0 195 123 321t293 126q125 0 205 -81t80 -196q0 -14 -7.5 -21t-42 -14.5t-105.5 -9.5t-200 -2h-166q-12 0 -14 -8q-10 -45 -10 -86q0 -170 85 -269.5t222 -99.5q121 0 229 88q10 6 22 -6q7 -7 6 -13q0 -5 -3 -9q-49 -57 -135 -100.5t-158 -43.5 q-190 0 -307 115.5t-117 308.5zM270 589q0 -7 9 -7h178q184 0 184 20q0 80 -39 130t-106 50q-82 0 -143 -52q-83 -72 -83 -141z" />
<glyph unicode="f" d="M77 768q0 13 7 16q57 10 92 33q4 4 4 12q-8 119 -8 191q0 197 105.5 321.5t277.5 124.5q129 0 195 -32q10 -6 10 -27q0 -41 -19 -78q-2 -6 -13 -6t-13 4q-39 45 -84 61.5t-125 16.5q-209 0 -209 -344q0 -90 12 -234q4 -8 13 -8q180 0 253 8q12 0 13 -8q0 -29 -6 -49 q-4 -6 -11 -6q-74 0 -239 -6q-10 0 -10 -10q14 -229 14 -426q0 -215 6 -314q0 -8 -8 -8h-135q-8 0 -9 8q10 164 11 275q0 268 -13 452q0 16 -20 17q-14 0 -82 -7q-9 5 -9 23z" />
<glyph unicode="g" horiz-adv-x="903" d="M51 -272q0 37 27 63q84 86 160 186q4 8 -2 15q-51 25 -72 49.5t-21 64.5q0 23 15 37q33 35 88 113q4 4 0 8q-129 88 -129 256q0 152 89 238t238 86q63 0 113 -15q41 -10 80 -10q78 0 154 8q14 0 14 -10q0 -23 -6 -45q-4 -10 -11 -10q-53 0 -106 -4q-2 0 -4 -5t0 -8 q78 -90 78 -215q0 -145 -90.5 -230t-237.5 -85q-57 0 -121 18q-6 0 -8 -2q-10 -20 -10 -38q0 -109 229 -109q195 0 270.5 -52t75.5 -177q0 -170 -149.5 -281t-339.5 -111q-145 0 -234.5 73t-89.5 192zM184 -270q0 -92 61.5 -148.5t164.5 -56.5q127 0 219 80t92 209 q0 80 -51.5 115.5t-167.5 35.5q-96 0 -174 6q-10 0 -15 -2q-129 -114 -129 -239zM248 555q0 -115 55 -199t139 -84q86 0 134.5 62.5t48.5 173.5q0 113 -55.5 195.5t-139.5 82.5q-86 0 -134 -60t-48 -171z" />
<glyph unicode="h" horiz-adv-x="913" d="M108 1399q0 5 3 11q4 9 12 11q68 8 147 9q8 0 9 -9q-8 -289 -9 -706q0 -6 11 -2q106 131 278 131q119 0 171 -69.5t52 -217.5q0 -328 6 -440q4 -68 11 -109q0 -8 -8 -8h-121q-23 0 -23 229v291q0 137 -33.5 189.5t-109.5 52.5q-109 0 -185 -84q-47 -55 -47 -180 q0 -391 7 -490q0 -8 -9 -8h-135q-8 0 -8 8q10 164 10 697q0 240 -8 507q-1 41 -11 103t-10 84z" />
<glyph unicode="i" horiz-adv-x="430" d="M120 801q0 5 3 11q4 9 12 11q68 8 148 8q8 0 8 -8l-8 -346q0 -338 8 -469q0 -8 -8 -8h-136q-8 0 -8 8q8 131 8 402q0 160 -6 276q-1 19 -11 58t-10 57zM123 1090q0 41 26.5 68.5t67.5 27.5q39 0 64.5 -25.5t25.5 -62.5q0 -41 -27.5 -69t-68.5 -28q-37 0 -62.5 25 t-25.5 64z" />
<glyph unicode="j" horiz-adv-x="411" d="M25 -508q47 70 66.5 122t29.5 150q8 84 8 523q0 283 -6 399q-4 59 -21 111q-2 6 2.5 15t12.5 11q68 8 147 8q8 0 8 -8l-10 -413q0 -254 6 -402q1 -23 1 -44q0 -128 -31 -210q-70 -184 -179 -293q-4 -2 -8 -2q-8 0 -17 9q-13 12 -9 24zM104 1090q0 41 27 68.5t68 27.5 q39 0 64.5 -25.5t25.5 -62.5q0 -41 -28 -69t-68 -28q-37 0 -63 25t-26 64z" />
<glyph unicode="k" horiz-adv-x="837" d="M108 1399q0 5 3 11q4 9 12 11q68 8 149 9q8 0 9 -9q-8 -289 -9 -985q0 -8 9 -8q33 0 112 80q164 164 260 299q8 8 23 12q70 4 96 4q4 0 6 -6t0 -10q-76 -63 -187.5 -181t-156.5 -182q-2 -6 0 -8q236 -254 430 -426q3 -5 4 -8q0 -4 -8 -4q-35 2 -151 2q-63 0 -84 29 q-68 94 -248 270q-68 68 -96 68q-8 0 -9 -9q0 -236 9 -350q0 -8 -9 -8h-137q-8 0 -8 8q10 164 10 697q0 240 -8 507q-1 41 -11 103t-10 84z" />
<glyph unicode="l" horiz-adv-x="430" d="M108 1399q0 5 3 11q4 9 12 11q68 8 149 9q8 0 9 -9q-8 -289 -9 -716q0 -565 9 -697q0 -8 -9 -8h-137q-8 0 -8 8q10 164 10 697q0 240 -8 507q-1 41 -11 103t-10 84z" />
<glyph unicode="m" horiz-adv-x="1423" d="M120 801q0 5 3 11q4 9 12 11q68 8 144 8q8 0 8 -8q-4 -66 -4 -108q0 -6 8 -2q106 131 278 131q168 0 205 -154q0 -2 3 -3t5 1q119 156 297 156q119 0 171.5 -69.5t52.5 -217.5q0 -328 6 -440q4 -68 10 -109q0 -8 -8 -8h-121q-23 0 -23 229v291q0 137 -33.5 189.5 t-109.5 52.5q-109 0 -184 -84q-47 -55 -47 -180q0 -358 8 -490q0 -8 -8 -8h-136q-8 0 -8 8q8 131 8 512q0 137 -33.5 189.5t-109.5 52.5q-109 0 -184 -84q-47 -55 -47 -180q0 -358 8 -490q0 -8 -8 -8h-136q-8 0 -8 8q8 131 8 402q0 160 -6 276q-1 19 -11 58t-10 57z" />
<glyph unicode="n" horiz-adv-x="923" d="M120 801q0 5 3 11q4 9 12 11q68 8 144 8q8 0 8 -8q-4 -66 -4 -108q0 -6 8 -2q109 133 278 133q119 0 171.5 -70.5t52.5 -218.5q0 -328 6 -440q4 -68 10 -109q0 -8 -8 -8h-121q-23 0 -23 229v291q0 137 -33.5 190.5t-109.5 53.5q-106 0 -184 -86q-47 -55 -47 -180 q0 -358 8 -490q0 -8 -8 -8h-136q-8 0 -8 8q8 131 8 402q0 160 -6 276q-1 19 -11 58t-10 57z" />
<glyph unicode="o" horiz-adv-x="1032" d="M90 389q0 207 119 331t307 124q199 0 312.5 -119t113.5 -295q0 -207 -118.5 -331t-307.5 -124q-199 0 -312.5 119t-113.5 295zM246 455q0 -182 77.5 -300t204.5 -118q119 0 188.5 86t69.5 242q0 182 -77.5 299.5t-204.5 117.5q-119 0 -188.5 -85.5t-69.5 -241.5z" />
<glyph unicode="p" horiz-adv-x="1030" d="M114 801q0 5 3 11q4 9 12 11q68 8 143 8q8 0 9 -8q-4 -45 -5 -67q0 -8 9 -4q123 92 256 92q182 0 290.5 -111.5t108.5 -288.5q0 -219 -138 -344t-343 -125q-86 0 -174 33q-8 4 -9 -4q0 -383 9 -514q0 -8 -9 -8h-135q-8 0 -8 8q8 131 8 625q0 455 -6 571q-1 19 -11 58 t-10 57zM276 614q0 -170 5 -395q4 -182 208 -182q135 0 215 94t80 252q0 180 -80.5 279.5t-224.5 99.5q-53 0 -103 -21.5t-77 -56.5q-23 -31 -23 -70z" />
<glyph unicode="q" horiz-adv-x="1036" d="M90 375q0 219 138.5 344t342.5 125q68 0 119 -15q84 -23 125 -22q18 0 68 18q20 4 20 -10q-14 -279 -14 -700q0 -494 8 -625q0 -8 -8 -8h-135q-8 0 -9 8q8 131 9 588q0 6 -9 2q-119 -104 -256 -105q-182 0 -290.5 112t-108.5 288zM246 436q0 -180 81 -279.5t224 -99.5 q109 0 180 80q23 27 23 70q0 168 -4 393q-6 182 -209 182q-135 0 -215 -94t-80 -252z" />
<glyph unicode="r" horiz-adv-x="532" d="M120 801q0 5 3 11q4 9 12 11q68 8 144 8q8 0 8 -8q-4 -66 -4 -135q0 -4 3 -4t5 2q27 72 79 110t109 40q16 0 17 -11q1 -18 1 -34q0 -42 -8 -78q-4 -14 -18 -15q-98 0 -141 -36q-47 -39 -47 -117q0 -406 8 -537q0 -8 -8 -8h-136q-8 0 -8 8q8 131 8 402q0 160 -6 276 q-1 19 -11 58t-10 57z" />
<glyph unicode="s" horiz-adv-x="704" d="M55 55q0 37 11 74q2 6 12 6t14 -4q63 -94 213 -94q76 0 126 42t50 126q0 53 -30.5 88t-112.5 63q-117 43 -171 100.5t-54 147.5q0 102 74.5 171t203.5 69q123 0 197 -58q8 -6 8 -22q0 -39 -10 -74q-2 -6 -13.5 -7t-13.5 3q-45 96 -174 96q-63 0 -98 -36.5t-35 -98.5 q0 -115 123 -160q141 -51 193.5 -105t52.5 -146q0 -117 -92.5 -189t-227.5 -72q-164 0 -238 58q-8 6 -8 22z" />
<glyph unicode="t" horiz-adv-x="575" d="M85 769q0 12 7 17q80 29 123 72q47 47 68 90q3 5 12 5q3 0 6 -1q14 -2 16 -6q-6 -61 -6 -115q0 -12 8 -12q100 0 175 8q12 0 12 -8q0 -29 -6 -49q-4 -6 -11 -6q-88 0 -165 -6q-10 0 -11 -13q-6 -179 -6 -315t6 -229q4 -82 23.5 -113t56.5 -31q57 0 119 35q8 2 15 -9 q4 -6 4 -11q0 -4 -3 -9q-98 -90 -196 -90q-167 0 -167 210q0 14 1 30q10 215 10 528q0 12 -8 13q-29 0 -74 -6q-9 4 -9 21z" />
<glyph unicode="u" horiz-adv-x="933" d="M114 801q0 5 3 11q4 9 12 11q68 8 147 8q8 0 9 -8l-9 -524q0 -137 34 -189.5t110 -52.5q109 0 184 84q47 55 47 181q0 248 -6 364q-4 59 -20 111q-2 6 2 15t12 11q68 8 147 8q8 0 9 -8l-9 -413q0 -270 9 -402q0 -8 -9 -8h-129q-8 0 -8 8q2 33 2 96q0 6 -8 2 q-106 -131 -278 -131q-119 0 -171.5 70t-52.5 217q0 307 -6 424q-1 19 -11 58t-10 57z" />
<glyph unicode="v" horiz-adv-x="829" d="M9 811q0 3 2 6q3 6 5 6q102 0 189 -4q10 0 14 -8q82 -240 246 -575q4 -4 8 0q154 309 254 575q4 8 10 8q41 4 94 4q8 -4 9 -10q0 -3 -2 -6q-152 -244 -398 -827q-2 -6 -14 -6.5t-14 6.5q-55 129 -161 318.5t-174 322t-68 190.5z" />
<glyph unicode="w" horiz-adv-x="1337" d="M10 807q-1 2 -1 4.5t1 5.5q2 6 6 6q90 0 181 -4q10 -4 12 -8q72 -238 221 -569q8 -14 14 0q164 317 261 589q4 8 14 8.5t14 -8.5q90 -262 252 -587q8 -8 14 0q129 272 226 571q4 4 8 4q61 4 106 4q2 0 6 -6q2 -4 1 -6q0 -55 -62 -183.5l-160 -319t-151 -328.5 q-4 -6 -15 -8h-2q-8 0 -12 8q-109 256 -262 573q-2 4 -7 4t-7 -4q-135 -283 -260 -573q-4 -6 -15 -8h-2q-8 0 -12 8q-203 522 -369 827z" />
<glyph unicode="x" horiz-adv-x="819" d="M13 2q-1 3 -1 5q0 3 2 5q127 123 332 389q4 4 0 13q-180 254 -307 393q-2 2 0 9t4 7q61 0 184 -4q10 -4 15 -8q66 -109 192 -287q4 -4 8 0q182 236 217 289q4 6 11 6q74 4 96 4q2 0 4 -6t0 -10q-100 -90 -291 -336q-4 -4 0 -10q231 -328 348 -449q2 -5 2 -9q0 -7 -8 -7 q-125 0 -184 4q-4 0 -12 8q-76 119 -234 338q-4 4 -8 0q-180 -227 -256 -338q-4 -4 -12 -8q-61 -4 -92 -4q-7 0 -10 6z" />
<glyph unicode="y" horiz-adv-x="817" d="M9 811q0 3 2 6q3 6 5 6q92 0 179 -4q10 0 14 -8q88 -272 250 -594q4 -4 8 0q178 369 252 594q4 8 10 8q41 4 90 4q8 -4 8 -10q0 -3 -2 -6q-82 -121 -374 -780q-152 -344 -232 -547q-6 -10 -12 -10q-25 -6 -92 -7q-2 0 -5.5 6.5t-0.5 10.5q121 209 264 547q2 6 0 12 q-55 139 -182 413q-31 66 -78.5 151l-75.5 137t-28 71z" />
<glyph unicode="z" horiz-adv-x="860" d="M59 8q240 340 482 742q0 8 -6 10q-61 4 -162 4q-123 0 -226 -23q-8 0 -8 7q0 23 8 67q4 8 11 8q78 -4 286 -4q207 0 301 4q6 0 10.5 -7t2.5 -11q-188 -254 -479 -739q0 -6 4 -7q113 -4 286 -4q152 0 232 19q6 0 10 -4q0 -41 -8 -66q-2 -8 -10 -8q-80 4 -332 4 q-285 0 -395 -4q-7 0 -8 6q0 2 1 6z" />
<glyph unicode="{" horiz-adv-x="653" d="M150 627.5q0 23.5 2 29.5q86 4 124.5 36t32.5 104q-18 231 -41 397q-14 100 65 177t206 81q4 -2 7 -23.5t-1 -27.5q-70 -12 -107 -59.5t-32 -102.5q25 -264 43 -379q29 -199 -162 -219q-4 -2 -4 -6t4 -6q94 -10 133 -71.5t24 -160.5q-18 -121 -43 -379q-4 -55 34 -102 t110 -59q4 -6 1 -28t-7 -24q-131 6 -208 81t-63 177q23 166 41 398q6 72 -32.5 102.5t-124.5 36.5q-2 4 -2 27.5z" />
<glyph unicode="|" horiz-adv-x="462" d="M201 -559v2048q16 4 30 4q10 0 31 -4v-2048q-20 -4 -31 -4q-14 0 -30 4z" />
<glyph unicode="}" horiz-adv-x="653" d="M107.5 -171.5q-3.5 21.5 1.5 28.5q70 12 106.5 59t32.5 102q-25 258 -43 379q-29 199 162 219q2 2 2 6.5t-2 6.5q-94 10 -133 71.5t-25 159.5q18 115 43 379q4 55 -34 102.5t-109 59.5q-4 6 -1 27.5t7 23.5q131 -6 207.5 -81t62.5 -177q-23 -166 -41 -397 q-6 -72 33 -102.5t125 -37.5q2 -4 2 -27.5t-2 -29.5q-86 -4 -125 -36t-33 -103q18 -231 41 -398q14 -100 -64.5 -176.5t-205.5 -81.5q-4 2 -7.5 23.5z" />
<glyph unicode="~" horiz-adv-x="1105" d="M106 418q90 147 248 147q111 0 230 -73q160 -98 243 -99q80 0 142 86q8 8 21.5 -1t8.5 -19q-90 -147 -247 -148q-111 0 -230 74q-96 59 -144 78.5t-99 19.5q-80 0 -142 -86q-8 -8 -21.5 1.5t-9.5 19.5z" />
<glyph unicode="&#xaa;" horiz-adv-x="866" d="M76 231q0 66 31.5 104t115.5 75q119 51 297 100q16 6 17 94q0 92 -33 135t-115 43q-61 0 -113.5 -31.5t-72.5 -86.5q-4 -6 -14.5 -7.5t-14.5 5.5q-14 33 -14 83q0 14 10 21q94 78 248 78q152 0 206 -62q50 -57 50 -171v-17q-6 -168 -6 -328q0 -121 15 -165t46 -44 q39 0 82 35q8 4 17 -5q6 -6 7 -12q0 -3 -1 -5q-82 -96 -185 -97q-90 0 -110 97q0 2 -3.5 3t-5.5 -1q-96 -96 -235 -97q-90 0 -154.5 76t-64.5 180zM231 256q0 -86 37 -142.5t99 -56.5q47 0 90 22.5t61 53.5q17 28 17 94v15q-2 55 -3 190q-6 6 -8 6q-123 -10 -219 -63 q-45 -25 -59.5 -47.5t-14.5 -71.5z" />
<glyph unicode="&#xad;" d="M113 379q41 41 64.5 52t68.5 11q106 0 203 9q31 2 55 8q6 2 12 -6.5t4 -14.5q-39 -39 -66.5 -50t-70.5 -11q-123 0 -203 -8q-33 -2 -51 -11q-6 -2 -12 6.5t-4 14.5z" />
<glyph unicode="&#xb2;" horiz-adv-x="761" d="M31 12q88 68 182 172q133 143 186.5 233.5t53.5 188.5q0 176 -152 176q-84 0 -125 -88q-4 -4 -12 -4t-12 4q-12 37 -13 78q0 12 11 19q84 55 219 55q102 0 170.5 -55.5t68.5 -143.5q0 -61 -40 -134t-152 -198q-100 -111 -172 -200q-2 -2 -1 -5.5t3 -3.5q72 -4 211 -4 q115 0 225 19q4 2 17.5 -2t13.5 -6q0 -43 -19 -107q-6 -10 -16 -10q-109 4 -328 4q-246 0 -311 -4q-4 0 -7 6t-1 10z" />
<glyph unicode="&#xb3;" horiz-adv-x="743" d="M29 -371q0 18 16 19q55 8 129 39.5t115 60.5q182 125 182 322q0 233 -192 233q-45 0 -95 -37q-10 -4 -23.5 14.5t-4.5 26.5q147 98 198.5 163t51.5 151q0 162 -152 161q-86 0 -129 -84q-2 -2 -12.5 -2t-12.5 2q-8 33 -8 78q4 10 10 15q84 55 220 55q102 0 170.5 -55.5 t68.5 -143.5q0 -82 -57.5 -148.5t-171.5 -138.5q-2 -2 -1 -5t3 -3q131 0 212 -59.5t81 -165.5q0 -156 -151.5 -305.5t-375.5 -251.5q-10 -4 -18 0q-41 24 -53 59z" />
<glyph unicode="&#xb9;" horiz-adv-x="659" d="M86 743.5q0 10.5 4 12.5q55 8 113.5 22.5t123.5 33.5l93 28q4 2 11 -1t7 -8l-8 -354q0 -338 8 -469q0 -8 -8 -8h-135q-8 0 -8 8q8 131 8 402v297q0 10 -10 14q-76 10 -195 10q-4 2 -4 12.5z" />
<glyph unicode="&#xba;" horiz-adv-x="1032" d="M90 389q0 207 119 331t307 124q199 0 312.5 -119t113.5 -295q0 -207 -118.5 -331t-307.5 -124q-199 0 -312.5 119t-113.5 295zM246 455q0 -182 77.5 -300t204.5 -118q119 0 188.5 86t69.5 242q0 182 -77.5 299.5t-204.5 117.5q-119 0 -188.5 -85.5t-69.5 -241.5z" />
<glyph unicode="&#xc0;" horiz-adv-x="1193" d="M279 1737q0 31 19 49t48 18q66 0 129 -102q84 -137 129 -191q-2 -8 -13 -18t-20 -12q-96 76 -188 129q-104 59 -104 127zM248 577l311 771q6 10 21.5 10t21.5 -10q356 -924 574 -1336q4 -16 -15 -16q-135 0 -178 4q-16 2 -20 12q-37 125 -195 518q-6 10 -16 15 q-127 4 -207 4q-92 0 -207 -4q-18 -4 -25 -21q-129 -317 -188 -520q0 -4 -6 -4q-53 -4 -115 -4q-6 0 -9 6q-2 4 -2 7q0 75 51 186t120 228.5t84 153.5zM362 647q-4 -16 13 -20q63 -4 164 -4q106 0 174 4q12 3 12 12q0 4 -2 8l-174 426q-4 5 -7.5 5t-6.5 -5z" />
<glyph unicode="&#xc2;" horiz-adv-x="1193" d="M123 1507l430 840q6 2 32 2t34 -2l418 -838q-2 -4 -24.5 -15.5t-29.5 -13.5l-395 797q-4 4 -8 0l-406 -797q-6 0 -27.5 11.5t-23.5 15.5zM248 577l311 771q6 10 21.5 10t21.5 -10q356 -924 574 -1336q4 -16 -15 -16q-135 0 -178 4q-16 2 -20 12q-37 125 -195 518 q-6 10 -16 15q-127 4 -207 4q-92 0 -207 -4q-18 -4 -25 -21q-129 -317 -188 -520q0 -4 -6 -4q-53 -4 -115 -4q-6 0 -9 6q-2 4 -2 7q0 75 51 186t120 228.5t84 153.5zM362 647q-4 -16 13 -20q63 -4 164 -4q106 0 174 4q12 3 12 12q0 4 -2 8l-174 426q-4 5 -7.5 5t-6.5 -5z " />
<glyph unicode="&#xc3;" horiz-adv-x="1193" d="M133 1587q90 147 248 147q111 0 230 -73q160 -98 243 -99q80 0 142 86q8 8 21.5 -1t8.5 -19q-90 -147 -247 -148q-111 0 -230 74q-96 59 -144 78.5t-99 19.5q-80 0 -142 -86q-8 -8 -21.5 1.5t-9.5 19.5zM248 577l311 771q6 10 21.5 10t21.5 -10q356 -924 574 -1336 q4 -16 -15 -16q-135 0 -178 4q-16 2 -20 12q-37 125 -195 518q-6 10 -16 15q-127 4 -207 4q-92 0 -207 -4q-18 -4 -25 -21q-129 -317 -188 -520q0 -4 -6 -4q-53 -4 -115 -4q-6 0 -9 6q-2 4 -2 7q0 75 51 186t120 228.5t84 153.5zM362 647q-4 -16 13 -20q63 -4 164 -4 q106 0 174 4q12 3 12 12q0 4 -2 8l-174 426q-4 5 -7.5 5t-6.5 -5z" />
<glyph unicode="&#xc8;" horiz-adv-x="841" d="M132 1731q0 31 19 49t48 18q66 0 129 -102q84 -137 129 -191q-2 -8 -13 -18t-20 -12q-96 76 -188 129q-104 59 -104 127zM131 4q8 369 8 659.5t-8 659.5q0 8 8 8q109 -4 318 -4q199 0 272 4q8 0 10 -6q6 -25 11 -68q-2 -10 -23 -10q-133 10 -270 10q-170 0 -170 -8 q-4 -205 -4 -528q0 -8 178 -8q152 0 211 8q8 0 8 -8q-2 -33 -14 -68q-6 -10 -23 -10q-90 8 -182 8q-178 0 -178 -8q0 -350 4 -451q2 -51 15 -74.5t50 -31.5q41 -8 119 -8q193 0 299 10q18 0 23 -14q-4 -31 -13 -64q-2 -6 -10 -6q-66 4 -293 4q-174 0 -338 -4q-8 0 -8 8z" />
<glyph unicode="&#xca;" horiz-adv-x="841" d="M-23 1501l430 840q6 2 32 2t34 -2l418 -838q-2 -4 -24.5 -15.5t-29.5 -13.5l-395 797q-4 4 -8 0l-406 -797q-6 0 -27.5 11.5t-23.5 15.5zM131 4q8 369 8 659.5t-8 659.5q0 8 8 8q109 -4 318 -4q199 0 272 4q8 0 10 -6q6 -25 11 -68q-2 -10 -23 -10q-133 10 -270 10 q-170 0 -170 -8q-4 -205 -4 -528q0 -8 178 -8q152 0 211 8q8 0 8 -8q-2 -33 -14 -68q-6 -10 -23 -10q-90 8 -182 8q-178 0 -178 -8q0 -350 4 -451q2 -51 15 -74.5t50 -31.5q41 -8 119 -8q193 0 299 10q18 0 23 -14q-4 -31 -13 -64q-2 -6 -10 -6q-66 4 -293 4q-174 0 -338 -4 q-8 0 -8 8z" />
<glyph unicode="&#xcc;" horiz-adv-x="421" d="M-92 1731q0 31 19 49t48 18q66 0 129 -102q84 -137 129 -191q-2 -8 -13 -18t-20 -12q-96 76 -188 129q-104 59 -104 127zM131 8q8 369 8 655.5t-8 655.5q0 8 8 8h144q8 0 8 -8q-8 -369 -8 -655.5t8 -655.5q0 -8 -8 -8h-144q-8 0 -8 8z" />
<glyph unicode="&#xce;" horiz-adv-x="421" d="M-246 1501l430 840q6 2 32 2t34 -2l418 -838q-2 -4 -24.5 -15.5t-29.5 -13.5l-395 797q-4 4 -8 0l-406 -797q-6 0 -27.5 11.5t-23.5 15.5zM131 8q8 369 8 655.5t-8 655.5q0 8 8 8h144q8 0 8 -8q-8 -369 -8 -655.5t8 -655.5q0 -8 -8 -8h-144q-8 0 -8 8z" />
<glyph unicode="&#xd1;" horiz-adv-x="1312" d="M-371 1581q90 147 248 147q111 0 230 -73q160 -98 243 -99q80 0 142 86q8 8 21.5 -1t8.5 -19q-90 -147 -247 -148q-111 0 -230 74q-96 59 -144 78.5t-99 19.5q-80 0 -142 -86q-8 -8 -21.5 1.5t-9.5 19.5zM70 1315q-1 3 -1 6t1 5q2 5 6 5q74 0 172 -4q10 0 18 -8 q348 -457 830 -1020q4 -4 8 2q-4 139 -4 404q0 270 -8 614q0 8 8 8h82q8 0 8 -8q-8 -303 -8 -655q0 -414 6 -689q0 -6 -11 -8q-4 -1 -8 0q-7 0 -12 2l-503 630l-435 525q-4 4 -8 -2q4 -139 4 -499q0 -270 8 -615q0 -8 -8 -8h-82q-8 0 -8 8q8 303 8 656v528q0 31 -14 53 q-8 15 -49 70z" />
<glyph unicode="&#xd2;" horiz-adv-x="1523" d="M461 1731q0 31 19 49t48 18q66 0 129 -102q84 -137 129 -191q-2 -8 -13 -18t-20 -12q-96 76 -188 129q-104 59 -104 127zM72 645q0 313 195.5 510t496.5 197q303 0 495.5 -190.5t192.5 -479.5q0 -322 -212 -514.5t-511 -192.5q-289 0 -473 190.5t-184 479.5zM244 709 q0 -297 144 -480.5t386 -183.5q211 0 358.5 149.5t147.5 423.5q0 297 -162 480.5t-399 183.5q-199 0 -337 -149.5t-138 -423.5z" />
<glyph unicode="&#xd4;" horiz-adv-x="1523" d="M307 1501l430 840q6 2 32 2t34 -2l418 -838q-2 -4 -24.5 -15.5t-29.5 -13.5l-395 797q-4 4 -8 0l-406 -797q-6 0 -27.5 11.5t-23.5 15.5zM72 645q0 313 195.5 510t496.5 197q303 0 495.5 -190.5t192.5 -479.5q0 -322 -212 -514.5t-511 -192.5q-289 0 -473 190.5 t-184 479.5zM244 709q0 -297 144 -480.5t386 -183.5q211 0 358.5 149.5t147.5 423.5q0 297 -162 480.5t-399 183.5q-199 0 -337 -149.5t-138 -423.5z" />
<glyph unicode="&#xd5;" horiz-adv-x="1523" d="M317 1581q90 147 248 147q111 0 230 -73q160 -98 243 -99q80 0 142 86q8 8 21.5 -1t8.5 -19q-90 -147 -247 -148q-111 0 -230 74q-96 59 -144 78.5t-99 19.5q-80 0 -142 -86q-8 -8 -21.5 1.5t-9.5 19.5zM72 645q0 313 195.5 510t496.5 197q303 0 495.5 -190.5 t192.5 -479.5q0 -322 -212 -514.5t-511 -192.5q-289 0 -473 190.5t-184 479.5zM244 709q0 -297 144 -480.5t386 -183.5q211 0 358.5 149.5t147.5 423.5q0 297 -162 480.5t-399 183.5q-199 0 -337 -149.5t-138 -423.5z" />
<glyph unicode="&#xd9;" horiz-adv-x="1157" d="M283 1731q0 31 19 49t48 18q66 0 129 -102q84 -137 129 -191q-2 -8 -13 -18t-20 -12q-96 76 -188 129q-104 59 -104 127zM119 1319q0 8 8 8h143q8 0 9 -8q-8 -369 -9 -821q0 -236 87 -344.5t266 -108.5q147 0 242.5 100.5t95.5 284.5q0 545 -9 889q0 8 9 8h81q8 0 9 -8 q-8 -303 -9 -852q0 -238 -124.5 -366t-350.5 -128q-205 0 -322.5 121t-117.5 342q0 514 -8 883z" />
<glyph unicode="&#xdb;" horiz-adv-x="1157" d="M127 1501l430 840q6 2 32 2t34 -2l418 -838q-2 -4 -24.5 -15.5t-29.5 -13.5l-395 797q-4 4 -8 0l-406 -797q-6 0 -27.5 11.5t-23.5 15.5zM119 1319q0 8 8 8h143q8 0 9 -8q-8 -369 -9 -821q0 -236 87 -344.5t266 -108.5q147 0 242.5 100.5t95.5 284.5q0 545 -9 889 q0 8 9 8h81q8 0 9 -8q-8 -303 -9 -852q0 -238 -124.5 -366t-350.5 -128q-205 0 -322.5 121t-117.5 342q0 514 -8 883z" />
<glyph unicode="&#xe0;" horiz-adv-x="866" d="M115 1223q0 31 19 49t48 18q66 0 129 -102q84 -137 129 -191q-2 -8 -13 -18t-20 -12q-96 76 -188 129q-104 59 -104 127zM76 231q0 66 31.5 104t115.5 75q119 51 297 100q16 6 17 94q0 92 -33 135t-115 43q-61 0 -113.5 -31.5t-72.5 -86.5q-4 -6 -14.5 -7.5t-14.5 5.5 q-14 33 -14 83q0 14 10 21q94 78 248 78q152 0 206 -62q50 -57 50 -171v-17q-6 -168 -6 -328q0 -121 15 -165t46 -44q39 0 82 35q8 4 17 -5q6 -6 7 -12q0 -3 -1 -5q-82 -96 -185 -97q-90 0 -110 97q0 2 -3.5 3t-5.5 -1q-96 -96 -235 -97q-90 0 -154.5 76t-64.5 180zM231 256 q0 -86 37 -142.5t99 -56.5q47 0 90 22.5t61 53.5q17 28 17 94v15q-2 55 -3 190q-6 6 -8 6q-123 -10 -219 -63q-45 -25 -59.5 -47.5t-14.5 -71.5z" />
<glyph unicode="&#xe2;" horiz-adv-x="866" d="M-39 993l430 840q6 2 32 2t34 -2l418 -838q-2 -4 -24.5 -15.5t-29.5 -13.5l-395 797q-4 4 -8 0l-406 -797q-6 0 -27.5 11.5t-23.5 15.5zM76 231q0 66 31.5 104t115.5 75q119 51 297 100q16 6 17 94q0 92 -33 135t-115 43q-61 0 -113.5 -31.5t-72.5 -86.5 q-4 -6 -14.5 -7.5t-14.5 5.5q-14 33 -14 83q0 14 10 21q94 78 248 78q152 0 206 -62q50 -57 50 -171v-17q-6 -168 -6 -328q0 -121 15 -165t46 -44q39 0 82 35q8 4 17 -5q6 -6 7 -12q0 -3 -1 -5q-82 -96 -185 -97q-90 0 -110 97q0 2 -3.5 3t-5.5 -1q-96 -96 -235 -97 q-90 0 -154.5 76t-64.5 180zM231 256q0 -86 37 -142.5t99 -56.5q47 0 90 22.5t61 53.5q17 28 17 94v15q-2 55 -3 190q-6 6 -8 6q-123 -10 -219 -63q-45 -25 -59.5 -47.5t-14.5 -71.5z" />
<glyph unicode="&#xe3;" horiz-adv-x="866" d="M-29 1073q90 147 248 147q111 0 230 -73q160 -98 243 -99q80 0 142 86q8 8 21.5 -1t8.5 -19q-90 -147 -247 -148q-111 0 -230 74q-96 59 -144 78.5t-99 19.5q-80 0 -142 -86q-8 -8 -21.5 1.5t-9.5 19.5zM76 231q0 66 31.5 104t115.5 75q119 51 297 100q16 6 17 94 q0 92 -33 135t-115 43q-61 0 -113.5 -31.5t-72.5 -86.5q-4 -6 -14.5 -7.5t-14.5 5.5q-14 33 -14 83q0 14 10 21q94 78 248 78q152 0 206 -62q50 -57 50 -171v-17q-6 -168 -6 -328q0 -121 15 -165t46 -44q39 0 82 35q8 4 17 -5q6 -6 7 -12q0 -3 -1 -5q-82 -96 -185 -97 q-90 0 -110 97q0 2 -3.5 3t-5.5 -1q-96 -96 -235 -97q-90 0 -154.5 76t-64.5 180zM231 256q0 -86 37 -142.5t99 -56.5q47 0 90 22.5t61 53.5q17 28 17 94v15q-2 55 -3 190q-6 6 -8 6q-123 -10 -219 -63q-45 -25 -59.5 -47.5t-14.5 -71.5z" />
<glyph unicode="&#xe8;" horiz-adv-x="884" d="M203 1223q0 31 19 49t48 18q66 0 129 -102q84 -137 129 -191q-2 -8 -13 -18t-20 -12q-96 76 -188 129q-104 59 -104 127zM90 397q0 195 123 321t293 126q125 0 205 -81t80 -196q0 -14 -7.5 -21t-42 -14.5t-105.5 -9.5t-200 -2h-166q-12 0 -14 -8q-10 -45 -10 -86 q0 -170 85 -269.5t222 -99.5q121 0 229 88q10 6 22 -6q7 -7 6 -13q0 -5 -3 -9q-49 -57 -135 -100.5t-158 -43.5q-190 0 -307 115.5t-117 308.5zM270 589q0 -7 9 -7h178q184 0 184 20q0 80 -39 130t-106 50q-82 0 -143 -52q-83 -72 -83 -141z" />
<glyph unicode="&#xea;" horiz-adv-x="884" d="M49 993l430 840q6 2 32 2t34 -2l418 -838q-2 -4 -24.5 -15.5t-29.5 -13.5l-395 797q-4 4 -8 0l-406 -797q-6 0 -27.5 11.5t-23.5 15.5zM90 397q0 195 123 321t293 126q125 0 205 -81t80 -196q0 -14 -7.5 -21t-42 -14.5t-105.5 -9.5t-200 -2h-166q-12 0 -14 -8 q-10 -45 -10 -86q0 -170 85 -269.5t222 -99.5q121 0 229 88q10 6 22 -6q7 -7 6 -13q0 -5 -3 -9q-49 -57 -135 -100.5t-158 -43.5q-190 0 -307 115.5t-117 308.5zM270 589q0 -7 9 -7h178q184 0 184 20q0 80 -39 130t-106 50q-82 0 -143 -52q-83 -72 -83 -141z" />
<glyph unicode="&#xec;" horiz-adv-x="430" d="M-86 1565q0 31 19 49t48 18q66 0 129 -102q84 -137 129 -191q-2 -8 -13 -18t-20 -12q-96 76 -188 129q-104 59 -104 127zM120 801q0 5 3 11q4 9 12 11q68 8 148 8q8 0 8 -8l-8 -346q0 -338 8 -469q0 -8 -8 -8h-136q-8 0 -8 8q8 131 8 402q0 160 -6 276q-1 19 -11 58 t-10 57zM123 1090q0 41 26.5 68.5t67.5 27.5q39 0 64.5 -25.5t25.5 -62.5q0 -41 -27.5 -69t-68.5 -28q-37 0 -62.5 25t-25.5 64z" />
<glyph unicode="&#xee;" horiz-adv-x="430" d="M-240 1335l430 840q6 2 32 2t34 -2l418 -838q-2 -4 -24.5 -15.5t-29.5 -13.5l-395 797q-4 4 -8 0l-406 -797q-6 0 -27.5 11.5t-23.5 15.5zM120 801q0 5 3 11q4 9 12 11q68 8 148 8q8 0 8 -8l-8 -346q0 -338 8 -469q0 -8 -8 -8h-136q-8 0 -8 8q8 131 8 402q0 160 -6 276 q-1 19 -11 58t-10 57zM123 1090q0 41 26.5 68.5t67.5 27.5q39 0 64.5 -25.5t25.5 -62.5q0 -41 -27.5 -69t-68.5 -28q-37 0 -62.5 25t-25.5 64z" />
<glyph unicode="&#xf1;" horiz-adv-x="923" d="M18 1075q90 147 248 147q111 0 230 -73q160 -98 243 -99q80 0 142 86q8 8 21.5 -1t8.5 -19q-90 -147 -247 -148q-111 0 -230 74q-96 59 -144 78.5t-99 19.5q-80 0 -142 -86q-8 -8 -21.5 1.5t-9.5 19.5zM120 801q0 5 3 11q4 9 12 11q68 8 144 8q8 0 8 -8q-4 -66 -4 -108 q0 -6 8 -2q109 133 278 133q119 0 171.5 -70.5t52.5 -218.5q0 -328 6 -440q4 -68 10 -109q0 -8 -8 -8h-121q-23 0 -23 229v291q0 137 -33.5 190.5t-109.5 53.5q-106 0 -184 -86q-47 -55 -47 -180q0 -358 8 -490q0 -8 -8 -8h-136q-8 0 -8 8q8 131 8 402q0 160 -6 276 q-1 19 -11 58t-10 57z" />
<glyph unicode="&#xf2;" horiz-adv-x="1032" d="M213 1223q0 31 19 49t48 18q66 0 129 -102q84 -137 129 -191q-2 -8 -13 -18t-20 -12q-96 76 -188 129q-104 59 -104 127zM90 389q0 207 119 331t307 124q199 0 312.5 -119t113.5 -295q0 -207 -118.5 -331t-307.5 -124q-199 0 -312.5 119t-113.5 295zM246 455 q0 -182 77.5 -300t204.5 -118q119 0 188.5 86t69.5 242q0 182 -77.5 299.5t-204.5 117.5q-119 0 -188.5 -85.5t-69.5 -241.5z" />
<glyph unicode="&#xf4;" horiz-adv-x="1032" d="M59 993l430 840q6 2 32 2t34 -2l418 -838q-2 -4 -24.5 -15.5t-29.5 -13.5l-395 797q-4 4 -8 0l-406 -797q-6 0 -27.5 11.5t-23.5 15.5zM90 389q0 207 119 331t307 124q199 0 312.5 -119t113.5 -295q0 -207 -118.5 -331t-307.5 -124q-199 0 -312.5 119t-113.5 295z M246 455q0 -182 77.5 -300t204.5 -118q119 0 188.5 86t69.5 242q0 182 -77.5 299.5t-204.5 117.5q-119 0 -188.5 -85.5t-69.5 -241.5z" />
<glyph unicode="&#xf5;" horiz-adv-x="1032" d="M69 1073q90 147 248 147q111 0 230 -73q160 -98 243 -99q80 0 142 86q8 8 21.5 -1t8.5 -19q-90 -147 -247 -148q-111 0 -230 74q-96 59 -144 78.5t-99 19.5q-80 0 -142 -86q-8 -8 -21.5 1.5t-9.5 19.5zM90 389q0 207 119 331t307 124q199 0 312.5 -119t113.5 -295 q0 -207 -118.5 -331t-307.5 -124q-199 0 -312.5 119t-113.5 295zM246 455q0 -182 77.5 -300t204.5 -118q119 0 188.5 86t69.5 242q0 182 -77.5 299.5t-204.5 117.5q-119 0 -188.5 -85.5t-69.5 -241.5z" />
<glyph unicode="&#xf9;" horiz-adv-x="933" d="M230 1223q0 31 19 49t48 18q66 0 129 -102q84 -137 129 -191q-2 -8 -13 -18t-20 -12q-96 76 -188 129q-104 59 -104 127zM114 801q0 5 3 11q4 9 12 11q68 8 147 8q8 0 9 -8l-9 -524q0 -137 34 -189.5t110 -52.5q109 0 184 84q47 55 47 181q0 248 -6 364q-4 59 -20 111 q-2 6 2 15t12 11q68 8 147 8q8 0 9 -8l-9 -413q0 -270 9 -402q0 -8 -9 -8h-129q-8 0 -8 8q2 33 2 96q0 6 -8 2q-106 -131 -278 -131q-119 0 -171.5 70t-52.5 217q0 307 -6 424q-1 19 -11 58t-10 57z" />
<glyph unicode="&#xfb;" horiz-adv-x="933" d="M73 993l430 840q6 2 32 2t34 -2l418 -838q-2 -4 -24.5 -15.5t-29.5 -13.5l-395 797q-4 4 -8 0l-406 -797q-6 0 -27.5 11.5t-23.5 15.5zM114 801q0 5 3 11q4 9 12 11q68 8 147 8q8 0 9 -8l-9 -524q0 -137 34 -189.5t110 -52.5q109 0 184 84q47 55 47 181q0 248 -6 364 q-4 59 -20 111q-2 6 2 15t12 11q68 8 147 8q8 0 9 -8l-9 -413q0 -270 9 -402q0 -8 -9 -8h-129q-8 0 -8 8q2 33 2 96q0 6 -8 2q-106 -131 -278 -131q-119 0 -171.5 70t-52.5 217q0 307 -6 424q-1 19 -11 58t-10 57z" />
<glyph unicode="&#x152;" horiz-adv-x="2365" d="M1655 4q8 369 8 659.5t-8 659.5q0 8 8 8q109 -4 318 -4q199 0 272 4q8 0 10 -6q6 -25 11 -68q-2 -10 -23 -10q-133 10 -270 10q-170 0 -170 -8q-4 -205 -4 -528q0 -8 178 -8q152 0 211 8q8 0 8 -8q-2 -33 -14 -68q-6 -10 -23 -10q-90 8 -182 8q-178 0 -178 -8 q0 -350 4 -451q2 -51 15 -74.5t50 -31.5q41 -8 119 -8q193 0 299 10q18 0 23 -14q-4 -31 -13 -64q-2 -6 -10 -6q-66 4 -293 4q-174 0 -338 -4q-8 0 -8 8zM72 645q0 313 195.5 510t496.5 197q303 0 495.5 -190.5t192.5 -479.5q0 -322 -212 -514.5t-511 -192.5 q-289 0 -473 190.5t-184 479.5zM244 709q0 -297 144 -480.5t386 -183.5q211 0 358.5 149.5t147.5 423.5q0 297 -162 480.5t-399 183.5q-199 0 -337 -149.5t-138 -423.5z" />
<glyph unicode="&#x153;" horiz-adv-x="1916" d="M1122 397q0 195 123 321t293 126q125 0 205 -81t80 -196q0 -14 -7.5 -21t-42 -14.5t-105.5 -9.5t-200 -2h-166q-12 0 -14 -8q-10 -45 -10 -86q0 -170 85 -269.5t222 -99.5q121 0 229 88q10 6 22 -6q7 -7 6 -13q0 -5 -3 -9q-49 -57 -135 -100.5t-158 -43.5 q-190 0 -307 115.5t-117 308.5zM1302 589q0 -7 9 -7h178q184 0 184 20q0 80 -39 130t-106 50q-82 0 -143 -52q-83 -72 -83 -141zM90 389q0 207 119 331t307 124q199 0 312.5 -119t113.5 -295q0 -207 -118.5 -331t-307.5 -124q-199 0 -312.5 119t-113.5 295zM246 455 q0 -182 77.5 -300t204.5 -118q119 0 188.5 86t69.5 242q0 182 -77.5 299.5t-204.5 117.5q-119 0 -188.5 -85.5t-69.5 -241.5z" />
<glyph unicode="&#x2c6;" horiz-adv-x="1191" d="M139 463l430 840q6 2 32 2t34 -2l418 -838q-2 -4 -24.5 -15.5t-29.5 -13.5l-395 797q-4 4 -8 0l-406 -797q-6 0 -27.5 11.5t-23.5 15.5z" />
<glyph unicode="&#x2dc;" horiz-adv-x="495" d="M-447 230q90 147 248 147q111 0 230 -73q160 -98 243 -99q80 0 142 86q8 8 21.5 -1t8.5 -19q-90 -147 -247 -148q-111 0 -230 74q-96 59 -144 78.5t-99 19.5q-80 0 -142 -86q-8 -8 -21.5 1.5t-9.5 19.5z" />
<glyph unicode="&#x2000;" horiz-adv-x="1173" />
<glyph unicode="&#x2001;" horiz-adv-x="2349" />
<glyph unicode="&#x2002;" horiz-adv-x="1173" />
<glyph unicode="&#x2003;" horiz-adv-x="2349" />
<glyph unicode="&#x2004;" horiz-adv-x="782" />
<glyph unicode="&#x2005;" horiz-adv-x="585" />
<glyph unicode="&#x2006;" horiz-adv-x="391" />
<glyph unicode="&#x2007;" horiz-adv-x="391" />
<glyph unicode="&#x2008;" horiz-adv-x="292" />
<glyph unicode="&#x2009;" horiz-adv-x="468" />
<glyph unicode="&#x200a;" horiz-adv-x="129" />
<glyph unicode="&#x2010;" d="M113 379q41 41 64.5 52t68.5 11q106 0 203 9q31 2 55 8q6 2 12 -6.5t4 -14.5q-39 -39 -66.5 -50t-70.5 -11q-123 0 -203 -8q-33 -2 -51 -11q-6 -2 -12 6.5t-4 14.5z" />
<glyph unicode="&#x2011;" d="M113 379q41 41 64.5 52t68.5 11q106 0 203 9q31 2 55 8q6 2 12 -6.5t4 -14.5q-39 -39 -66.5 -50t-70.5 -11q-123 0 -203 -8q-33 -2 -51 -11q-6 -2 -12 6.5t-4 14.5z" />
<glyph unicode="&#x2012;" d="M113 379q41 41 64.5 52t68.5 11q106 0 203 9q31 2 55 8q6 2 12 -6.5t4 -14.5q-39 -39 -66.5 -50t-70.5 -11q-123 0 -203 -8q-33 -2 -51 -11q-6 -2 -12 6.5t-4 14.5z" />
<glyph unicode="&#x2013;" horiz-adv-x="1024" d="M113 358v101h798v-101h-798z" />
<glyph unicode="&#x2014;" horiz-adv-x="2048" d="M113 358v101h1822v-101h-1822z" />
<glyph unicode="&#x2018;" horiz-adv-x="423" d="M98 1192q0 160 207 264q16 4 28.5 -17.5t0.5 -33.5q-76 -47 -101.5 -78t-25.5 -65q0 -55 61 -88q43 -23 43 -72q0 -33 -19.5 -55.5t-55.5 -22.5q-63 0 -100.5 46t-37.5 122z" />
<glyph unicode="&#x2019;" horiz-adv-x="423" d="M90 1041.5q-12 21.5 0 33.5q76 47 101.5 78t25.5 66q0 55 -61 88q-43 23 -43 71q0 33 19.5 55.5t55.5 22.5q61 0 99.5 -47t38.5 -121q0 -160 -207 -264q-17 -4 -29 17.5z" />
<glyph unicode="&#x201c;" horiz-adv-x="729" d="M98 1192q0 160 207 264q16 4 28.5 -17.5t0.5 -33.5q-76 -47 -101.5 -78t-25.5 -65q0 -55 61 -88q43 -23 43 -72q0 -33 -19.5 -55.5t-55.5 -22.5q-63 0 -100.5 46t-37.5 122zM403 1192q0 160 207 264q16 4 28.5 -17.5t0.5 -33.5q-76 -47 -101.5 -78t-25.5 -65 q0 -55 61 -88q43 -23 43 -72q0 -33 -19 -55.5t-56 -22.5q-63 0 -100.5 46t-37.5 122z" />
<glyph unicode="&#x201d;" horiz-adv-x="729" d="M90 1041.5q-12 21.5 0 33.5q76 47 101.5 78t25.5 66q0 55 -61 88q-43 23 -43 71q0 33 19.5 55.5t55.5 22.5q61 0 99.5 -47t38.5 -121q0 -160 -207 -264q-17 -4 -29 17.5zM395.5 1041.5q-12.5 21.5 -0.5 33.5q76 47 101.5 78t25.5 66q0 55 -61 88q-43 23 -43 71 q0 33 19.5 55.5t56.5 22.5q61 0 99 -47t38 -121q0 -160 -207 -264q-16 -4 -28.5 17.5z" />
<glyph unicode="&#x2026;" horiz-adv-x="1228" d="M932 63q0 41 26.5 69t67.5 28q39 0 64.5 -25.5t25.5 -62.5q0 -41 -27.5 -69t-68.5 -28q-37 0 -62.5 24.5t-25.5 63.5zM523 63q0 41 26.5 69t67.5 28q39 0 64.5 -25.5t25.5 -62.5q0 -41 -27.5 -69t-68.5 -28q-37 0 -62.5 24.5t-25.5 63.5zM113 63q0 41 26.5 69t67.5 28 q39 0 64.5 -25.5t25.5 -62.5q0 -41 -27.5 -69t-68.5 -28q-37 0 -62.5 24.5t-25.5 63.5z" />
<glyph unicode="&#x202f;" horiz-adv-x="468" />
<glyph unicode="&#x2039;" horiz-adv-x="1087" d="M92 428q0 27 4 35l848 422q8 -4 16.5 -21.5t8.5 -27.5l-801 -398q-4 -4 -4 -8t4 -6l803 -395q0 -8 -11.5 -30t-17.5 -26l-846 422q-4 6 -4 33z" />
<glyph unicode="&#x203a;" horiz-adv-x="1087" d="M117 829q0 8 11 30t17 26l846 -422q4 -6 4 -33t-4 -35l-848 -422q-8 4 -16 21.5t-8 28.5l801 397q4 4 0 14z" />
<glyph unicode="&#x205f;" horiz-adv-x="585" />
<glyph unicode="&#x2122;" horiz-adv-x="2750" d="M1262 8q12 207 25.5 627t13.5 596q0 16 -8 33q-20 39 -31 55q-3 1 -3 3q0 4 9 9q86 0 160 -4q10 0 16 -8q211 -504 488 -1038q4 -4 8 0q262 512 489 1034q4 10 17 12q37 4 153 4q12 0 13 -12q-16 -47 -17 -88q0 -707 37 -1223q0 -8 -8 -8h-145q-8 0 -9 8q0 15 1 37 q0 122 -10 464q-11 404 -21 595q-4 6 -9 2q-203 -391 -514 -1073q-23 -20 -43 0q-223 512 -487 1026q-8 8 -8 -2q-27 -728 -27 -1011v-38q0 -8 -8 -8h-74q-8 0 -8 8zM16 1249q6 47 17 80q4 6 10 6q205 -8 549 -8q426 0 555 8q8 0 10 -6q-2 -41 -20 -84q-2 -6 -17.5 -9 t-23.5 1q-115 20 -269 20q-164 0 -163 -12v-581q0 -287 8 -656q0 -8 -8 -8h-144q-8 0 -8 8q8 369 8 656v581q0 12 -164 12q-195 0 -307 -20q-8 -2 -20.5 2t-12.5 10z" />
<glyph unicode="&#xe000;" horiz-adv-x="825" d="M0 825h825v-825h-825v825z" />
<glyph unicode="&#xfb01;" horiz-adv-x="1062" d="M753 801q0 5 3 11q4 9 12 11q68 8 148 8q8 0 8 -8l-8 -346q0 -338 8 -469q0 -8 -8 -8h-136q-8 0 -8 8q8 131 8 402q0 160 -6 276q-1 19 -11 58t-10 57zM756 1090q0 41 26.5 68.5t67.5 27.5q39 0 64.5 -25.5t25.5 -62.5q0 -41 -27.5 -69t-68.5 -28q-37 0 -62.5 25 t-25.5 64zM77 768q0 13 7 16q57 10 92 33q4 4 4 12q-8 119 -8 191q0 197 105.5 321.5t277.5 124.5q129 0 195 -32q10 -6 10 -27q0 -41 -19 -78q-2 -6 -13 -6t-13 4q-39 45 -84 61.5t-125 16.5q-209 0 -209 -344q0 -90 12 -234q4 -8 13 -8q180 0 253 8q12 0 13 -8 q0 -29 -6 -49q-4 -6 -11 -6q-74 0 -239 -6q-10 0 -10 -10q14 -229 14 -426q0 -215 6 -314q0 -8 -8 -8h-135q-8 0 -9 8q10 164 11 275q0 268 -13 452q0 16 -20 17q-14 0 -82 -7q-9 5 -9 23z" />
<glyph unicode="&#xfb02;" horiz-adv-x="1062" d="M741 1399q0 5 3 11q4 9 12 11q68 8 149 9q8 0 9 -9q-8 -289 -9 -716q0 -565 9 -697q0 -8 -9 -8h-137q-8 0 -8 8q10 164 10 697q0 240 -8 507q-1 41 -11 103t-10 84zM77 768q0 13 7 16q57 10 92 33q4 4 4 12q-8 119 -8 191q0 197 105.5 321.5t277.5 124.5q129 0 195 -32 q10 -6 10 -27q0 -41 -19 -78q-2 -6 -13 -6t-13 4q-39 45 -84 61.5t-125 16.5q-209 0 -209 -344q0 -90 12 -234q4 -8 13 -8q180 0 253 8q12 0 13 -8q0 -29 -6 -49q-4 -6 -11 -6q-74 0 -239 -6q-10 0 -10 -10q14 -229 14 -426q0 -215 6 -314q0 -8 -8 -8h-135q-8 0 -9 8 q10 164 11 275q0 268 -13 452q0 16 -20 17q-14 0 -82 -7q-9 5 -9 23z" />
<glyph unicode="&#xfb03;" horiz-adv-x="1695" d="M1386 801q0 5 3 11q4 9 12 11q68 8 148 8q8 0 8 -8l-8 -346q0 -338 8 -469q0 -8 -8 -8h-136q-8 0 -8 8q8 131 8 402q0 160 -6 276q-1 19 -11 58t-10 57zM1389 1090q0 41 26.5 68.5t67.5 27.5q39 0 64.5 -25.5t25.5 -62.5q0 -41 -27.5 -69t-68.5 -28q-37 0 -62.5 25 t-25.5 64zM710 768q0 13 7 16q57 10 92 33q4 4 4 12q-8 119 -8 191q0 197 105.5 321.5t277.5 124.5q129 0 195 -32q10 -6 10 -27q0 -41 -19 -78q-2 -6 -13 -6t-13 4q-39 45 -84 61.5t-125 16.5q-209 0 -209 -344q0 -90 12 -234q4 -8 13 -8q180 0 253 8q12 0 13 -8 q0 -29 -6 -49q-4 -6 -11 -6q-74 0 -239 -6q-10 0 -10 -10q14 -229 14 -426q0 -215 6 -314q0 -8 -8 -8h-135q-8 0 -9 8q10 164 11 275q0 268 -13 452q0 16 -20 17q-14 0 -82 -7q-9 5 -9 23zM77 768q0 13 7 16q57 10 92 33q4 4 4 12q-8 119 -8 191q0 197 105.5 321.5 t277.5 124.5q129 0 195 -32q10 -6 10 -27q0 -41 -19 -78q-2 -6 -13 -6t-13 4q-39 45 -84 61.5t-125 16.5q-209 0 -209 -344q0 -90 12 -234q4 -8 13 -8q180 0 253 8q12 0 13 -8q0 -29 -6 -49q-4 -6 -11 -6q-74 0 -239 -6q-10 0 -10 -10q14 -229 14 -426q0 -215 6 -314 q0 -8 -8 -8h-135q-8 0 -9 8q10 164 11 275q0 268 -13 452q0 16 -20 17q-14 0 -82 -7q-9 5 -9 23z" />
<glyph unicode="&#xfb04;" horiz-adv-x="1695" d="M1374 1399q0 5 3 11q4 9 12 11q68 8 149 9q8 0 9 -9q-8 -289 -9 -716q0 -565 9 -697q0 -8 -9 -8h-137q-8 0 -8 8q10 164 10 697q0 240 -8 507q-1 41 -11 103t-10 84zM710 768q0 13 7 16q57 10 92 33q4 4 4 12q-8 119 -8 191q0 197 105.5 321.5t277.5 124.5q129 0 195 -32 q10 -6 10 -27q0 -41 -19 -78q-2 -6 -13 -6t-13 4q-39 45 -84 61.5t-125 16.5q-209 0 -209 -344q0 -90 12 -234q4 -8 13 -8q180 0 253 8q12 0 13 -8q0 -29 -6 -49q-4 -6 -11 -6q-74 0 -239 -6q-10 0 -10 -10q14 -229 14 -426q0 -215 6 -314q0 -8 -8 -8h-135q-8 0 -9 8 q10 164 11 275q0 268 -13 452q0 16 -20 17q-14 0 -82 -7q-9 5 -9 23zM77 768q0 13 7 16q57 10 92 33q4 4 4 12q-8 119 -8 191q0 197 105.5 321.5t277.5 124.5q129 0 195 -32q10 -6 10 -27q0 -41 -19 -78q-2 -6 -13 -6t-13 4q-39 45 -84 61.5t-125 16.5q-209 0 -209 -344 q0 -90 12 -234q4 -8 13 -8q180 0 253 8q12 0 13 -8q0 -29 -6 -49q-4 -6 -11 -6q-74 0 -239 -6q-10 0 -10 -10q14 -229 14 -426q0 -215 6 -314q0 -8 -8 -8h-135q-8 0 -9 8q10 164 11 275q0 268 -13 452q0 16 -20 17q-14 0 -82 -7q-9 5 -9 23z" />
</font>
</defs>
</svg>
